<?xml version="1.0" encoding="UTF-8"?>
<svg id="Camada_2" data-name="Camada 2" xmlns="http://www.w3.org/2000/svg" viewBox="0 0 169.93 169.93">
  <defs>
    <style>
      .cls-1 {
        fill: #14142c;
      }

      .cls-2 {
        fill: #3c9;
        stroke-miterlimit: 10;
        stroke-width: 2px;
      }

      .cls-2, .cls-3 {
        stroke: #14142c;
      }

      .cls-3 {
        fill: none;
        stroke-linecap: round;
        stroke-linejoin: round;
        stroke-width: 3px;
      }
    </style>
  </defs>
  <g id="Camada_1-2" data-name="Camada 1">
    <g>
      <rect class="cls-2" x="10.31" y="10.31" width="149.32" height="149.32" transform="translate(-10.45 11.93) rotate(-7.57)"/>
      <g>
        <path class="cls-1" d="M68.72,60.85c1.27,9.57-1.47,17.83-6.12,18.45-4.65.62-9.45-6.64-10.72-16.21-1.27-9.57,1.47-17.83,6.11-18.45,4.65-.62,9.45,6.64,10.72,16.21Z"/>
        <path class="cls-1" d="M114.76,54.73c1.27,9.57-1.47,17.83-6.12,18.45-4.65.62-9.45-6.64-10.72-16.21-1.27-9.57,1.46-17.83,6.11-18.45,4.65-.62,9.45,6.64,10.72,16.21Z"/>
      </g>
      <g>
        <path class="cls-3" d="M134.52,83.4c3.42,25.76-15.88,41.67-41.64,45.09-25.76,3.42-48.35-7.91-51.78-33.67"/>
        <path class="cls-3" d="M142.68,82.93c-6.38,1.84-10.5.29-13-6.04"/>
        <path class="cls-3" d="M32.04,97.63c6.64.11,10.21-2.47,10.98-9.22"/>
      </g>
    </g>
  </g>
</svg>